<svg width="209" height="48" viewBox="0 0 209 48" fill="none" xmlns="http://www.w3.org/2000/svg">
<g filter="url(#filter0_d_1_465)">
<circle cx="30" cy="26" r="14" fill="#EC615B"/>
<g style="mix-blend-mode:multiply">
<circle cx="18" cy="14" r="14" fill="#5222D0"/>
</g>
<path d="M68.15 14.875C68.15 11.85 65.725 9.50002 62.7 9.50002H55.225V27H63.425C67 27 68.85 24.525 68.875 21.475C68.875 19.925 68.2 18.625 66.775 17.9C67.625 17.2 68.15 15.925 68.15 14.875ZM63.1 20.05C64.9 20.05 64.925 23.025 63.125 23.025H59.55V20.05H63.1ZM62.35 13.5C64.15 13.5 64.15 16.325 62.375 16.325H59.55V13.5H62.35Z" fill="black"/>
<path d="M82.8136 18.4V27C84.3636 27 85.9136 27 87.4386 27V9.42503H85.8136L76.9636 18.075V9.50002C75.4386 9.50002 73.9136 9.50002 72.3886 9.50002V27.025H73.9886L82.8136 18.4Z" fill="black"/>
<path d="M103.044 27H107.419V26.35L99.5193 9.27502H97.5943L89.7193 26.35V27H94.0943L95.1193 24.8H102.019L103.044 27ZM100.569 20.975H96.5693L98.5443 16.375L100.569 20.975Z" fill="black"/>
<path d="M114.192 27V22.525H117.417C125.792 22.525 125.792 9.52502 117.417 9.50002C114.842 9.50002 112.242 9.50002 109.717 9.50002C109.717 15.35 109.717 21.175 109.717 27C111.192 27 112.692 27 114.192 27ZM117.392 18.5H114.192C114.192 17.075 114.192 14.925 114.192 13.5C115.217 13.5 116.342 13.475 117.392 13.5C119.992 13.525 119.842 18.5 117.392 18.5Z" fill="black"/>
<path d="M128.151 27H132.976L141.276 10.175V9.50002H136.426L133.426 15.95H133.301L130.001 9.50002H125.001V10.175L130.901 20.875L128.151 26.525V27Z" fill="black"/>
<path d="M143.727 27H165.902V9.50002H161.327V22.875H157.102V9.50002H152.527V22.875H148.302V9.50002H143.727V27Z" fill="black"/>
<path d="M174.937 27V20.325C175.512 20.325 176.062 20.325 176.662 20.225L180.512 27H185.487V26.3L180.737 18.6C184.212 16.375 184.112 13.075 184.112 9.50002C182.562 9.50002 181.037 9.50002 179.512 9.50002C179.512 12.775 179.737 16.125 175.262 16.125H174.937V9.50002C173.387 9.50002 171.887 9.50002 170.387 9.50002V27C171.887 27 173.387 27 174.937 27Z" fill="black"/>
<path d="M200.237 27H204.612V26.35L196.712 9.27502H194.787L186.912 26.35V27H191.287L192.312 24.8H199.212L200.237 27ZM197.762 20.975H193.762L195.737 16.375L197.762 20.975Z" fill="black"/>
</g>
<defs>
<filter id="filter0_d_1_465" x="0" y="0" width="209" height="48" filterUnits="userSpaceOnUse" color-interpolation-filters="sRGB">
<feFlood flood-opacity="0" result="BackgroundImageFix"/>
<feColorMatrix in="SourceAlpha" type="matrix" values="0 0 0 0 0 0 0 0 0 0 0 0 0 0 0 0 0 0 127 0" result="hardAlpha"/>
<feOffset dy="4"/>
<feGaussianBlur stdDeviation="2"/>
<feComposite in2="hardAlpha" operator="out"/>
<feColorMatrix type="matrix" values="0 0 0 0 0 0 0 0 0 0 0 0 0 0 0 0 0 0 0.25 0"/>
<feBlend mode="normal" in2="BackgroundImageFix" result="effect1_dropShadow_1_465"/>
<feBlend mode="normal" in="SourceGraphic" in2="effect1_dropShadow_1_465" result="shape"/>
</filter>
</defs>
</svg>
